<svg xmlns="http://www.w3.org/2000/svg" viewBox="0 0 64 64" fill="none">
  <defs>
    <linearGradient id="bgGrad" x1="0" y1="0" x2="64" y2="64" gradientUnits="userSpaceOnUse">
      <stop stop-color="#4F46E5" />
      <stop offset="0.5" stop-color="#7C3AED" />
      <stop offset="1" stop-color="#06B6D4" />
    </linearGradient>
    <linearGradient id="capGrad" x1="16" y1="12" x2="48" y2="36" gradientUnits="userSpaceOnUse">
      <stop stop-color="#FFFFFF" />
      <stop offset="1" stop-color="#E0E7FF" />
    </linearGradient>
  </defs>
  <rect width="64" height="64" rx="18" fill="url(#bgGrad)" />
  <path d="M32 10L50 18V32C50 43.5 42.5 51.5 32 55C21.5 51.5 14 43.5 14 32V18L32 10Z" fill="white" fill-opacity="0.15" stroke="white" stroke-width="2" stroke-linejoin="round" />
  <path d="M32 18L48 26L32 34L16 26L32 18Z" fill="url(#capGrad)" />
  <path d="M22 30.5V38C22 41 26.5 43.5 32 43.5C37.5 43.5 42 41 42 38V30.5" stroke="white" stroke-width="2.5" stroke-linecap="round" />
  <path d="M44 28V36" stroke="#FDE047" stroke-width="2" stroke-linecap="round" />
  <circle cx="44" cy="37" r="1.5" fill="#FDE047" />
</svg>
